# This file uses centimeters as units for non-parametric coordinates.

mtllib sand dunes.mtl
g default
v 0.095492 -0.951057 -0.293893
v -0.095492 -0.951057 -0.293893
v -0.293893 -0.951057 0.095492
v -0.181636 -0.951057 0.250000
v -0.000000 -0.951057 0.309017
v 0.181636 -0.951057 0.250000
v 0.293893 -0.951057 0.095492
v 0.559017 -0.809017 -0.181636
v 0.218508 -0.707107 -0.672499
v -0.218508 -0.707107 -0.672499
v -0.415627 -0.707107 -0.572062
v -0.672499 -0.707107 -0.218508
v -0.672499 -0.707107 0.218508
v -0.572062 -0.707107 0.415627
v -0.218508 -0.707107 0.672499
v 0.218508 -0.707107 0.672499
v 0.672499 -0.707107 0.218508
v 0.847398 -0.453991 -0.275336
v 0.275336 -0.453991 -0.847398
v -0.523721 -0.453991 0.720840
v -0.275336 -0.453991 0.847398
v -0.000000 -0.453991 0.891007
v 0.847398 -0.453991 0.275336
v 0.939348 -0.156434 -0.305213
v 0.809018 0.000000 -0.587786
v 0.580549 -0.156434 -0.799057
v 0.000000 -0.156434 -0.987689
v -0.305213 -0.156434 -0.939348
v -0.587785 0.000000 -0.809017
v -0.799057 -0.156434 -0.580549
v -0.939348 -0.156434 -0.305213
v -0.987689 -0.156434 0.000000
v -0.939348 -0.156434 0.305213
v -0.799057 -0.156434 0.580549
v 0.305212 -0.156434 0.939348
v 0.580549 -0.156434 0.799057
v 0.987688 -0.156434 0.000000
v 0.580549 0.156434 -0.799057
v 0.305213 0.156434 -0.939348
v -0.580549 0.156434 0.799057
v -0.305213 0.156434 0.939348
v -0.000000 0.156434 0.987688
v 0.799057 0.156434 0.580549
v 0.939348 0.156434 0.305212
v 0.939348 0.156434 -0.305213
v -0.275336 0.453991 -0.847398
v -0.720840 0.453991 -0.523721
v -0.847398 0.453991 -0.275336
v -0.891007 0.453991 0.000000
v -0.847398 0.453991 0.275336
v 0.275336 0.453991 0.847398
v 0.523721 0.453991 0.720840
v 0.891007 0.453991 0.000000
v 0.654509 0.587785 -0.475529
v -0.475528 0.587785 -0.654509
v 0.847398 0.453991 -0.275336
v 0.218508 0.707107 -0.672499
v 0.000000 0.707107 -0.707107
v -0.672499 0.707107 0.218508
v -0.218508 0.707107 0.672499
v 0.572061 0.707107 0.415627
v 0.672499 0.707107 -0.218508
v -0.345492 0.809017 -0.475528
v -0.431771 0.891007 -0.140291
v 0.218508 0.707107 0.672499
v 0.707107 0.707107 0.000000
v 0.431771 0.891007 -0.140291
v 0.095492 0.951057 -0.293893
v -0.095492 0.951057 -0.293893
v -0.293893 0.951057 0.095492
v -0.181636 0.951057 0.250000
v -0.000000 0.951057 0.309017
v 0.181636 0.951057 0.250000
v 0.293893 0.951057 0.095492
v 0.000000 1.000000 0.000000
v 0.000000 -1.000000 0.000000
vt 0.150000 0.100000
vt 0.250000 0.100000
vt 0.500000 0.100000
vt 0.600000 0.100000
vt 0.700000 0.100000
vt 0.800000 0.100000
vt 0.900000 0.100000
vt 0.000000 0.200000
vt 1.000000 0.200000
vt 0.150000 0.250000
vt 0.250000 0.250000
vt 0.300000 0.250000
vt 0.400000 0.250000
vt 0.500000 0.250000
vt 0.550000 0.250000
vt 0.650000 0.250000
vt 0.750000 0.250000
vt 0.900000 0.250000
vt 0.000000 0.350000
vt 0.150000 0.350000
vt 0.600000 0.350000
vt 0.650000 0.350000
vt 0.700000 0.350000
vt 0.900000 0.350000
vt 1.000000 0.350000
vt 0.000000 0.450000
vt 0.050000 0.500000
vt 0.100000 0.450000
vt 0.200000 0.450000
vt 0.250000 0.450000
vt 0.300000 0.500000
vt 0.350000 0.450000
vt 0.400000 0.450000
vt 0.450000 0.450000
vt 0.500000 0.450000
vt 0.550000 0.450000
vt 0.750000 0.450000
vt 0.800000 0.450000
vt 0.950000 0.450000
vt 1.000000 0.450000
vt 0.100000 0.550000
vt 0.150000 0.550000
vt 0.600000 0.550000
vt 0.650000 0.550000
vt 0.700000 0.550000
vt 0.850000 0.550000
vt 0.900000 0.550000
vt 0.000000 0.550000
vt 0.250000 0.650000
vt 0.350000 0.650000
vt 0.400000 0.650000
vt 0.450000 0.650000
vt 0.500000 0.650000
vt 0.750000 0.650000
vt 0.800000 0.650000
vt 0.950000 0.650000
vt 1.000000 0.550000
vt 0.050000 0.700000
vt 0.300000 0.700000
vt 0.000000 0.650000
vt 0.150000 0.750000
vt 0.200000 0.750000
vt 0.500000 0.750000
vt 0.650000 0.750000
vt 0.850000 0.750000
vt 1.000000 0.650000
vt 0.000000 0.750000
vt 0.300000 0.800000
vt 0.400000 0.850000
vt 0.750000 0.750000
vt 0.950000 0.750000
vt 1.000000 0.750000
vt 0.000000 0.850000
vt 0.150000 0.900000
vt 0.250000 0.900000
vt 0.500000 0.900000
vt 0.600000 0.900000
vt 0.700000 0.900000
vt 0.800000 0.900000
vt 0.900000 0.900000
vt 1.000000 0.850000
vt 0.125000 1.000000
vt 0.225000 1.000000
vt 0.375000 1.000000
vt 0.475000 1.000000
vt 0.575000 1.000000
vt 0.675000 1.000000
vt 0.775000 1.000000
vt 0.875000 1.000000
vt 0.975000 1.000000
vt 0.125000 0.000000
vt 0.225000 0.000000
vt 0.425000 0.000000
vt 0.575000 0.000000
vt 0.675000 0.000000
vt 0.775000 0.000000
vt 0.875000 0.000000
vt 0.975000 0.000000
vn -0.000000 -0.986415 -0.164273
vn -0.000000 -0.986415 -0.164273
vn -0.000000 -0.986415 -0.164273
vn -0.194750 -0.975821 -0.099230
vn -0.194750 -0.975821 -0.099230
vn -0.194750 -0.975821 -0.099230
vn -0.132899 -0.986415 0.096557
vn -0.132899 -0.986415 0.096557
vn -0.132899 -0.986415 0.096557
vn -0.050763 -0.986415 0.156233
vn -0.050763 -0.986415 0.156233
vn -0.050763 -0.986415 0.156233
vn 0.050763 -0.986415 0.156233
vn 0.050763 -0.986415 0.156233
vn 0.050763 -0.986415 0.156233
vn 0.132899 -0.986415 0.096557
vn 0.132899 -0.986415 0.096557
vn 0.132899 -0.986415 0.096557
vn 0.305510 -0.950359 -0.059001
vn 0.305510 -0.950359 -0.059001
vn 0.305510 -0.950359 -0.059001
vn 0.238271 -0.937751 -0.252686
vn 0.238271 -0.937751 -0.252686
vn 0.238271 -0.937751 -0.252686
vn 0.357424 -0.833659 -0.421023
vn 0.357424 -0.833659 -0.421023
vn 0.357424 -0.833659 -0.421023
vn 0.000000 -0.840612 -0.541637
vn 0.000000 -0.840612 -0.541637
vn 0.000000 -0.840612 -0.541637
vn -0.000000 -0.840612 -0.541637
vn -0.000000 -0.840612 -0.541637
vn -0.000000 -0.840612 -0.541637
vn -0.239348 -0.849736 -0.469747
vn -0.239348 -0.849736 -0.469747
vn -0.239348 -0.849736 -0.469747
vn -0.454349 -0.860217 -0.231502
vn -0.454349 -0.860218 -0.231502
vn -0.454349 -0.860217 -0.231502
vn -0.360053 -0.895506 -0.261594
vn -0.360053 -0.895506 -0.261594
vn -0.360053 -0.895506 -0.261594
vn -0.541637 -0.840612 0.000000
vn -0.541637 -0.840612 0.000000
vn -0.541637 -0.840612 0.000000
vn -0.469747 -0.849735 0.239348
vn -0.469747 -0.849735 0.239348
vn -0.469747 -0.849735 0.239348
vn -0.411293 -0.861129 0.298822
vn -0.411293 -0.861129 0.298822
vn -0.411293 -0.861129 0.298822
vn -0.327557 -0.830329 0.450844
vn -0.327557 -0.830329 0.450844
vn -0.327557 -0.830329 0.450844
vn -0.157100 -0.861129 0.483504
vn -0.157100 -0.861129 0.483504
vn -0.157100 -0.861129 0.483504
vn 0.000000 -0.830329 0.557273
vn 0.000000 -0.830329 0.557273
vn 0.000000 -0.830329 0.557273
vn 0.157100 -0.861129 0.483504
vn 0.157100 -0.861129 0.483504
vn 0.157100 -0.861129 0.483504
vn 0.424633 -0.799608 0.424633
vn 0.424633 -0.799608 0.424633
vn 0.424633 -0.799608 0.424633
vn 0.438194 -0.840612 0.318366
vn 0.438194 -0.840612 0.318366
vn 0.438194 -0.840612 0.318366
vn 0.524880 -0.848516 0.067247
vn 0.524880 -0.848516 0.067247
vn 0.524880 -0.848516 0.067247
vn 0.583084 -0.614026 -0.531963
vn 0.583084 -0.614026 -0.531963
vn 0.583084 -0.614026 -0.531963
vn -0.000000 -0.568473 -0.822702
vn -0.000000 -0.568473 -0.822702
vn -0.000000 -0.568473 -0.822702
vn -0.444930 -0.653462 0.612393
vn -0.444930 -0.653462 0.612393
vn -0.444930 -0.653462 0.612393
vn -0.368848 -0.583019 0.723906
vn -0.368848 -0.583019 0.723906
vn -0.368848 -0.583019 0.723906
vn -0.127096 -0.583019 0.802456
vn -0.127096 -0.583019 0.802456
vn -0.127096 -0.583019 0.802456
vn 0.000000 -0.653462 0.756960
vn 0.000000 -0.653462 0.756960
vn 0.000000 -0.653462 0.756960
vn 0.828819 -0.551460 -0.094606
vn 0.828819 -0.551460 -0.094606
vn 0.828819 -0.551460 -0.094606
vn 0.776198 -0.630489 0.000001
vn 0.776198 -0.630489 0.000001
vn 0.776198 -0.630489 0.000001
vn 0.793099 -0.298396 -0.530994
vn 0.793099 -0.298396 -0.530994
vn 0.793099 -0.298396 -0.530994
vn 0.599372 -0.418814 -0.682165
vn 0.599372 -0.418814 -0.682164
vn 0.599372 -0.418814 -0.682165
vn 0.733704 -0.568057 -0.372813
vn 0.733704 -0.568057 -0.372813
vn 0.733704 -0.568057 -0.372813
vn 0.615008 -0.537034 -0.577374
vn 0.615008 -0.537033 -0.577374
vn 0.615008 -0.537034 -0.577374
vn -0.066939 -0.475503 -0.877164
vn -0.066939 -0.475503 -0.877164
vn -0.066939 -0.475503 -0.877164
vn -0.139737 -0.449536 -0.882264
vn -0.139737 -0.449536 -0.882265
vn -0.139737 -0.449536 -0.882265
vn -0.405533 -0.449536 -0.795902
vn -0.405533 -0.449536 -0.795902
vn -0.405533 -0.449536 -0.795902
vn -0.553149 -0.382654 -0.740001
vn -0.553149 -0.382654 -0.740001
vn -0.553149 -0.382654 -0.740001
vn -0.532851 -0.382653 -0.754749
vn -0.532851 -0.382653 -0.754749
vn -0.532851 -0.382653 -0.754749
vn -0.702138 -0.496757 -0.510133
vn -0.702138 -0.496757 -0.510133
vn -0.702138 -0.496757 -0.510133
vn -0.795902 -0.449536 -0.405532
vn -0.795902 -0.449536 -0.405532
vn -0.795902 -0.449536 -0.405532
vn -0.882265 -0.449536 -0.139737
vn -0.882265 -0.449536 -0.139737
vn -0.882265 -0.449536 -0.139737
vn -0.867890 -0.496756 0.000000
vn -0.867890 -0.496756 0.000000
vn -0.867890 -0.496756 0.000000
vn -0.882265 -0.449536 0.139737
vn -0.882265 -0.449536 0.139737
vn -0.882265 -0.449536 0.139737
vn -0.795902 -0.449536 0.405533
vn -0.795902 -0.449536 0.405533
vn -0.795902 -0.449536 0.405533
vn -0.795902 -0.449536 0.405533
vn -0.795902 -0.449536 0.405533
vn -0.795902 -0.449536 0.405533
vn -0.741877 -0.453686 0.493749
vn -0.741877 -0.453686 0.493749
vn -0.741877 -0.453686 0.493749
vn 0.309972 -0.453686 0.835515
vn 0.309972 -0.453686 0.835515
vn 0.309972 -0.453686 0.835515
vn 0.405533 -0.449536 0.795902
vn 0.405533 -0.449536 0.795902
vn 0.405533 -0.449536 0.795902
vn 0.598978 -0.531460 0.598979
vn 0.598978 -0.531460 0.598979
vn 0.598978 -0.531460 0.598979
vn 0.585070 -0.540097 0.604969
vn 0.585070 -0.540097 0.604969
vn 0.585070 -0.540097 0.604969
vn 0.904509 -0.426454 0.000001
vn 0.904509 -0.426454 0.000001
vn 0.904509 -0.426454 0.000001
vn 0.940447 -0.305570 -0.148950
vn 0.940447 -0.305570 -0.148950
vn 0.940447 -0.305570 -0.148950
vn 0.678935 0.000000 -0.734199
vn 0.678935 0.000000 -0.734199
vn 0.678935 0.000000 -0.734199
vn 0.156433 0.000000 -0.987689
vn 0.156433 0.000000 -0.987689
vn 0.156433 0.000000 -0.987689
vn 0.448536 -0.154555 -0.880300
vn 0.448536 -0.154555 -0.880300
vn 0.448536 -0.154555 -0.880300
vn 0.308942 -0.156433 -0.938128
vn 0.308942 -0.156433 -0.938128
vn 0.308942 -0.156433 -0.938128
vn -0.577369 -0.156433 0.801357
vn -0.577369 -0.156433 0.801357
vn -0.577369 -0.156433 0.801357
vn -0.448535 -0.154555 0.880300
vn -0.448535 -0.154555 0.880301
vn -0.448535 -0.154555 0.880301
vn -0.448536 -0.154555 0.880300
vn -0.448536 -0.154555 0.880300
vn -0.448536 -0.154555 0.880300
vn -0.154554 -0.154555 0.975821
vn -0.154554 -0.154555 0.975821
vn -0.154554 -0.154555 0.975821
vn -0.154555 -0.154555 0.975821
vn -0.154555 -0.154555 0.975821
vn -0.154555 -0.154555 0.975821
vn -0.003924 -0.156433 0.987681
vn -0.003924 -0.156433 0.987681
vn -0.003924 -0.156433 0.987681
vn 0.821673 -0.201505 0.533150
vn 0.821673 -0.201505 0.533150
vn 0.821673 -0.201505 0.533150
vn 0.880300 -0.154555 0.448536
vn 0.880300 -0.154555 0.448536
vn 0.880300 -0.154555 0.448536
vn 0.938128 -0.156433 0.308942
vn 0.938128 -0.156433 0.308942
vn 0.938128 -0.156433 0.308942
vn 0.908067 0.000000 -0.418826
vn 0.908067 0.000000 -0.418826
vn 0.908067 0.000000 -0.418826
vn -0.149621 0.291919 -0.944668
vn -0.149621 0.291919 -0.944668
vn -0.149621 0.291919 -0.944668
vn -0.078025 0.152231 -0.985260
vn -0.078025 0.152231 -0.985260
vn -0.078025 0.152231 -0.985260
vn -0.341004 0.156322 -0.926973
vn -0.341004 0.156322 -0.926973
vn -0.341004 0.156322 -0.926973
vn -0.776228 0.156322 -0.610765
vn -0.776228 0.156322 -0.610765
vn -0.776228 0.156322 -0.610765
vn -0.880300 0.154555 -0.448535
vn -0.880300 0.154555 -0.448535
vn -0.880300 0.154555 -0.448535
vn -0.880300 0.154555 -0.448536
vn -0.880300 0.154555 -0.448536
vn -0.880300 0.154555 -0.448536
vn -0.975820 0.154555 -0.154555
vn -0.975821 0.154555 -0.154555
vn -0.975820 0.154555 -0.154555
vn -0.975821 0.154555 -0.154555
vn -0.975821 0.154555 -0.154555
vn -0.975821 0.154555 -0.154555
vn -0.975820 0.154555 0.154555
vn -0.975821 0.154555 0.154555
vn -0.975820 0.154555 0.154555
vn -0.975821 0.154555 0.154555
vn -0.975821 0.154555 0.154555
vn -0.975821 0.154555 0.154555
vn -0.880300 0.154555 0.448536
vn -0.880300 0.154555 0.448536
vn -0.880300 0.154555 0.448536
vn -0.821673 0.201505 0.533150
vn -0.821673 0.201505 0.533150
vn -0.821673 0.201505 0.533150
vn 0.308943 0.156433 0.938127
vn 0.308943 0.156433 0.938127
vn 0.308943 0.156433 0.938127
vn 0.448535 0.154555 0.880300
vn 0.448535 0.154555 0.880300
vn 0.448535 0.154555 0.880300
vn 0.448535 0.154555 0.880300
vn 0.448535 0.154555 0.880300
vn 0.448535 0.154555 0.880300
vn 0.577369 0.156433 0.801357
vn 0.577369 0.156433 0.801357
vn 0.577369 0.156433 0.801357
vn 0.987681 0.156433 -0.003924
vn 0.987681 0.156433 -0.003924
vn 0.987681 0.156433 -0.003924
vn 0.975821 0.154555 -0.154553
vn 0.975821 0.154555 -0.154553
vn 0.975821 0.154555 -0.154553
vn 0.987688 0.000000 0.156436
vn 0.987688 0.000000 0.156436
vn 0.987688 0.000000 0.156436
vn 0.787045 0.308872 -0.534001
vn 0.787045 0.308872 -0.534001
vn 0.787045 0.308872 -0.534001
vn 0.751076 0.308873 -0.583509
vn 0.751076 0.308873 -0.583509
vn 0.751076 0.308873 -0.583509
vn -0.544704 0.308969 -0.779638
vn -0.544704 0.308969 -0.779638
vn -0.544704 0.308969 -0.779638
vn -0.573158 0.308969 -0.758965
vn -0.573158 0.308969 -0.758965
vn -0.573158 0.308969 -0.758965
vn 0.779014 0.296215 -0.552625
vn 0.779014 0.296215 -0.552625
vn 0.779014 0.296215 -0.552625
vn 0.390932 0.508433 -0.767247
vn 0.390932 0.508433 -0.767247
vn 0.390932 0.508433 -0.767247
vn 0.466984 0.444077 -0.764671
vn 0.466984 0.444077 -0.764671
vn 0.466984 0.444077 -0.764671
vn 0.139737 0.449536 -0.882265
vn 0.139737 0.449536 -0.882265
vn 0.139737 0.449536 -0.882265
vn 0.072940 0.421613 -0.903838
vn 0.072940 0.421613 -0.903838
vn 0.072940 0.421613 -0.903838
vn -0.585070 0.540098 0.604969
vn -0.585070 0.540098 0.604969
vn -0.585070 0.540098 0.604969
vn -0.598978 0.531460 0.598979
vn -0.598978 0.531460 0.598979
vn -0.598978 0.531460 0.598979
vn -0.405533 0.449536 0.795902
vn -0.405533 0.449536 0.795902
vn -0.405533 0.449536 0.795902
vn -0.139737 0.449536 0.882265
vn -0.139737 0.449536 0.882265
vn -0.139737 0.449536 0.882265
vn -0.066939 0.475503 0.877164
vn -0.066939 0.475503 0.877164
vn -0.066939 0.475503 0.877164
vn 0.741877 0.453686 0.493749
vn 0.741877 0.453686 0.493749
vn 0.741877 0.453686 0.493749
vn 0.795902 0.449536 0.405533
vn 0.795902 0.449536 0.405533
vn 0.795902 0.449536 0.405533
vn 0.813547 0.475503 0.334722
vn 0.813547 0.475503 0.334722
vn 0.813547 0.475503 0.334722
vn 0.940447 0.305570 -0.148950
vn 0.940447 0.305570 -0.148950
vn 0.940447 0.305570 -0.148950
vn 0.742735 0.585965 -0.324021
vn 0.742735 0.585965 -0.324021
vn 0.742735 0.585965 -0.324021
vn -0.265321 0.671882 -0.691505
vn -0.265321 0.671882 -0.691505
vn -0.265321 0.671882 -0.691505
vn -0.211140 0.686789 -0.695515
vn -0.211140 0.686789 -0.695515
vn -0.211140 0.686789 -0.695515
vn -0.589512 0.716750 -0.372485
vn -0.589512 0.716750 -0.372485
vn -0.589512 0.716750 -0.372485
vn -0.633927 0.702714 -0.323002
vn -0.633927 0.702714 -0.323002
vn -0.633927 0.702714 -0.323002
vn -0.702713 0.702714 -0.111299
vn -0.702713 0.702714 -0.111299
vn -0.702713 0.702714 -0.111299
vn -0.702714 0.702713 -0.111299
vn -0.702714 0.702713 -0.111299
vn -0.702714 0.702713 -0.111299
vn -0.802456 0.583019 0.127096
vn -0.802456 0.583019 0.127096
vn -0.802456 0.583019 0.127096
vn 0.000000 0.568473 0.822702
vn 0.000000 0.568473 0.822702
vn 0.000000 0.568473 0.822702
vn 0.368849 0.583019 0.723906
vn 0.368849 0.583019 0.723906
vn 0.368849 0.583019 0.723906
vn 0.444930 0.653462 0.612393
vn 0.444930 0.653462 0.612393
vn 0.444930 0.653462 0.612393
vn 0.782436 0.568473 0.254229
vn 0.782436 0.568473 0.254229
vn 0.782436 0.568473 0.254229
vn 0.802456 0.583019 -0.127095
vn 0.802456 0.583019 -0.127095
vn 0.802456 0.583019 -0.127095
vn 0.802456 0.583019 -0.127095
vn 0.802456 0.583019 -0.127095
vn 0.802456 0.583019 -0.127095
vn 0.471618 0.786745 -0.398257
vn 0.471618 0.786745 -0.398257
vn 0.471618 0.786745 -0.398257
vn 0.416918 0.794469 -0.441586
vn 0.416918 0.794469 -0.441586
vn 0.416918 0.794469 -0.441586
vn -0.668927 0.663808 -0.334508
vn -0.668927 0.663808 -0.334508
vn -0.668927 0.663808 -0.334508
vn 0.344316 0.836180 -0.426906
vn 0.344316 0.836180 -0.426906
vn 0.344316 0.836180 -0.426906
vn 0.082474 0.849736 -0.520718
vn 0.082474 0.849736 -0.520718
vn 0.082474 0.849736 -0.520718
vn 0.000000 0.861130 -0.508386
vn 0.000000 0.861129 -0.508386
vn 0.000000 0.861130 -0.508386
vn -0.100896 0.846353 -0.522979
vn -0.100896 0.846353 -0.522978
vn -0.100896 0.846353 -0.522979
vn -0.519392 0.850073 0.087224
vn -0.519392 0.850073 0.087224
vn -0.519392 0.850073 0.087224
vn -0.438194 0.840612 0.318367
vn -0.438194 0.840612 0.318367
vn -0.438194 0.840612 0.318367
vn -0.424633 0.799608 0.424633
vn -0.424633 0.799608 0.424633
vn -0.424633 0.799608 0.424633
vn -0.157100 0.861129 0.483504
vn -0.157100 0.861129 0.483504
vn -0.157100 0.861129 0.483504
vn 0.000000 0.830329 0.557273
vn 0.000000 0.830329 0.557273
vn 0.000000 0.830329 0.557273
vn 0.157100 0.861129 0.483504
vn 0.157100 0.861129 0.483504
vn 0.157100 0.861129 0.483504
vn 0.327557 0.830329 0.450844
vn 0.327557 0.830329 0.450844
vn 0.327557 0.830329 0.450844
vn 0.411293 0.861129 0.298822
vn 0.411293 0.861129 0.298822
vn 0.411293 0.861129 0.298822
vn 0.529999 0.830329 0.172207
vn 0.529999 0.830329 0.172207
vn 0.529999 0.830329 0.172207
vn 0.521521 0.848601 0.088844
vn 0.521521 0.848601 0.088844
vn 0.521521 0.848601 0.088844
vn 0.585255 0.805534 -0.092694
vn 0.585255 0.805534 -0.092694
vn 0.585255 0.805534 -0.092694
vn -0.298238 0.906619 -0.298490
vn -0.298238 0.906619 -0.298490
vn -0.298238 0.906619 -0.298490
vn 0.215559 0.972161 -0.091860
vn 0.215559 0.972161 -0.091860
vn 0.215559 0.972161 -0.091860
vn -0.000000 0.986415 -0.164273
vn -0.000000 0.986415 -0.164273
vn -0.000000 0.986415 -0.164273
vn -0.215559 0.972161 -0.091860
vn -0.215559 0.972161 -0.091860
vn -0.215559 0.972161 -0.091860
vn -0.203339 0.970665 -0.128307
vn -0.203339 0.970665 -0.128307
vn -0.203339 0.970665 -0.128307
vn -0.132899 0.986415 0.096557
vn -0.132899 0.986415 0.096557
vn -0.132899 0.986415 0.096557
vn -0.050763 0.986415 0.156233
vn -0.050763 0.986415 0.156233
vn -0.050763 0.986415 0.156233
vn 0.050763 0.986415 0.156233
vn 0.050763 0.986415 0.156233
vn 0.050763 0.986415 0.156233
vn 0.132899 0.986415 0.096557
vn 0.132899 0.986415 0.096557
vn 0.132899 0.986415 0.096557
vn 0.203339 0.970665 -0.128306
vn 0.203339 0.970665 -0.128306
vn 0.203339 0.970665 -0.128306
s off
g pSphere1
usemtl initialShadingGroup
f 76/92/1 2/2/2 1/1/3
f 2/2/4 76/93/5 3/3/6
f 76/94/7 4/4/8 3/3/9
f 76/95/10 5/5/11 4/4/12
f 76/96/13 6/6/14 5/5/15
f 76/97/16 7/7/17 6/6/18
f 8/8/19 76/91/20 1/1/21
f 7/7/22 76/98/23 8/9/24
f 8/8/25 1/1/26 9/10/27
f 1/1/28 2/2/29 9/10/30
f 9/10/31 2/2/32 10/11/33
f 10/11/34 2/2/35 11/12/36
f 2/2/37 3/3/38 11/12/39
f 11/12/40 3/3/41 12/13/42
f 12/13/43 3/3/44 13/14/45
f 13/14/46 3/3/47 14/15/48
f 3/3/49 4/4/50 14/15/51
f 14/15/52 4/4/53 15/16/54
f 4/4/55 5/5/56 15/16/57
f 15/16/58 5/5/59 16/17/60
f 5/5/61 6/6/62 16/17/63
f 16/17/64 6/6/65 17/18/66
f 6/6/67 7/7/68 17/18/69
f 7/7/70 8/9/71 17/18/72
f 8/8/73 9/10/74 18/19/75
f 9/10/76 10/11/77 19/20/78
f 14/15/79 15/16/80 20/21/81
f 20/21/82 15/16/83 21/22/84
f 21/22/85 15/16/86 22/23/87
f 15/16/88 16/17/89 22/23/90
f 17/18/91 8/9/92 23/24/93
f 23/24/94 8/9/95 18/25/96
f 24/26/97 18/19/98 25/27/99
f 18/19/100 9/10/101 25/27/102
f 25/27/103 9/10/104 26/28/105
f 9/10/106 19/20/107 26/28/108
f 19/20/109 10/11/110 27/29/111
f 27/29/112 10/11/113 28/30/114
f 10/11/115 11/12/116 28/30/117
f 28/30/118 11/12/119 29/31/120
f 29/31/121 11/12/122 30/32/123
f 11/12/124 12/13/125 30/32/126
f 30/32/127 12/13/128 31/33/129
f 31/33/130 12/13/131 32/34/132
f 12/13/133 13/14/134 32/34/135
f 32/34/136 13/14/137 33/35/138
f 13/14/139 14/15/140 33/35/141
f 33/35/142 14/15/143 34/36/144
f 14/15/145 20/21/146 34/36/147
f 22/23/148 16/17/149 35/37/150
f 35/37/151 16/17/152 36/38/153
f 16/17/154 17/18/155 36/38/156
f 17/18/157 23/24/158 36/38/159
f 23/24/160 18/25/161 37/39/162
f 37/39/163 18/25/164 24/40/165
f 25/27/166 26/28/167 38/41/168
f 26/28/169 19/20/170 38/41/171
f 38/41/172 19/20/173 39/42/174
f 19/20/175 27/29/176 39/42/177
f 34/36/178 20/21/179 40/43/180
f 20/21/181 21/22/182 40/43/183
f 40/43/184 21/22/185 41/44/186
f 21/22/187 22/23/188 41/44/189
f 41/44/190 22/23/191 42/45/192
f 22/23/193 35/37/194 42/45/195
f 36/38/196 23/24/197 43/46/198
f 43/46/199 23/24/200 44/47/201
f 23/24/202 37/39/203 44/47/204
f 24/26/205 25/27/206 45/48/207
f 27/29/208 28/30/209 39/42/210
f 39/42/211 28/30/212 46/49/213
f 28/30/214 29/31/215 46/49/216
f 29/31/217 30/32/218 47/50/219
f 30/32/220 31/33/221 47/50/222
f 47/50/223 31/33/224 48/51/225
f 31/33/226 32/34/227 48/51/228
f 48/51/229 32/34/230 49/52/231
f 32/34/232 33/35/233 49/52/234
f 49/52/235 33/35/236 50/53/237
f 33/35/238 34/36/239 50/53/240
f 50/53/241 34/36/242 40/43/243
f 42/45/244 35/37/245 51/54/246
f 35/37/247 36/38/248 51/54/249
f 51/54/250 36/38/251 52/55/252
f 36/38/253 43/46/254 52/55/255
f 44/47/256 37/39/257 53/56/258
f 37/39/259 24/40/260 53/56/261
f 53/56/262 24/40/263 45/57/264
f 45/48/265 25/27/266 54/58/267
f 25/27/268 38/41/269 54/58/270
f 46/49/271 29/31/272 55/59/273
f 29/31/274 47/50/275 55/59/276
f 45/48/277 54/58/278 56/60/279
f 38/41/280 39/42/281 54/58/282
f 54/58/283 39/42/284 57/61/285
f 57/61/286 39/42/287 58/62/288
f 39/42/289 46/49/290 58/62/291
f 50/53/292 40/43/293 59/63/294
f 59/63/295 40/43/296 60/64/297
f 40/43/298 41/44/299 60/64/300
f 41/44/301 42/45/302 60/64/303
f 60/64/304 42/45/305 51/54/306
f 52/55/307 43/46/308 61/65/309
f 43/46/310 44/47/311 61/65/312
f 61/65/313 44/47/314 53/56/315
f 53/56/316 45/57/317 56/66/318
f 56/60/319 54/58/320 62/67/321
f 58/62/322 46/49/323 63/68/324
f 46/49/325 55/59/326 63/68/327
f 55/59/328 47/50/329 64/69/330
f 47/50/331 48/51/332 64/69/333
f 48/51/334 49/52/335 64/69/336
f 64/69/337 49/52/338 59/63/339
f 49/52/340 50/53/341 59/63/342
f 60/64/343 51/54/344 65/70/345
f 51/54/346 52/55/347 65/70/348
f 65/70/349 52/55/350 61/65/351
f 61/65/352 53/56/353 66/71/354
f 53/56/355 56/66/356 66/71/357
f 66/71/358 56/66/359 62/72/360
f 62/67/361 54/58/362 67/73/363
f 54/58/364 57/61/365 67/73/366
f 55/59/367 64/69/368 63/68/369
f 67/73/370 57/61/371 68/74/372
f 57/61/373 58/62/374 68/74/375
f 68/74/376 58/62/377 69/75/378
f 58/62/379 63/68/380 69/75/381
f 64/69/382 59/63/383 70/76/384
f 70/76/385 59/63/386 71/77/387
f 59/63/388 60/64/389 71/77/390
f 71/77/391 60/64/392 72/78/393
f 60/64/394 65/70/395 72/78/396
f 72/78/397 65/70/398 73/79/399
f 65/70/400 61/65/401 73/79/402
f 73/79/403 61/65/404 74/80/405
f 61/65/406 66/71/407 74/80/408
f 74/80/409 66/71/410 67/81/411
f 66/71/412 62/72/413 67/81/414
f 69/75/415 63/68/416 64/69/417
f 67/73/418 68/74/419 75/82/420
f 68/74/421 69/75/422 75/83/423
f 69/75/424 64/69/425 75/84/426
f 64/69/427 70/76/428 75/85/429
f 70/76/430 71/77/431 75/86/432
f 71/77/433 72/78/434 75/87/435
f 72/78/436 73/79/437 75/88/438
f 73/79/439 74/80/440 75/89/441
f 74/80/442 67/81/443 75/90/444
